<svg xmlns="http://www.w3.org/2000/svg" width="1280" height="640" viewBox="0 0 1280 640" role="img" aria-labelledby="title desc"><title id="title">Mawared ERP</title><desc id="desc">Arabic-first HR and enterprise operations platform</desc><defs><linearGradient id="bg" x1="0" y1="1" x2="1" y2="0"><stop offset="0" stop-color="#061522"/><stop offset="1" stop-color="#0c4850"/></linearGradient><linearGradient id="m" x1="0" y1="0" x2="1" y2="1"><stop stop-color="#53e0c1"/><stop offset="1" stop-color="#d7fff7"/></linearGradient></defs><rect width="1280" height="640" fill="url(#bg)"/><circle cx="1120" cy="20" r="250" fill="#53e0c1" opacity=".07"/><circle cx="1200" cy="620" r="290" fill="#53e0c1" opacity=".045"/><path d="M0 500C220 430 405 540 650 475c235-63 385-23 630-125v290H0z" fill="#fff" opacity=".035"/><rect x="72" y="118" width="224" height="224" rx="48" fill="#fff" opacity=".09"/><path d="M107 274V184h31l46 66 45-66h32v90h-31v-47l-46 63-46-63v47z" fill="url(#m)"/><text x="350" y="210" fill="#fff" font-family="Segoe UI,Arial,sans-serif" font-size="76" font-weight="750">Mawared ERP</text><text x="350" y="290" fill="#d7fff7" font-family="Tahoma,Arial,sans-serif" font-size="50" font-weight="700">موارد</text><text x="350" y="370" fill="#c8dde3" font-family="Segoe UI,Arial,sans-serif" font-size="30">Arabic-first HR &amp; enterprise operations platform</text><text x="350" y="420" fill="#53e0c1" font-family="Segoe UI,Arial,sans-serif" font-size="21" font-weight="700">Kotlin • Jetpack Compose • TypeScript • PostgreSQL</text><rect x="1020" y="520" width="170" height="50" rx="25" fill="#fff" opacity=".12"/><text x="1105" y="552" text-anchor="middle" fill="#d7fff7" font-family="Segoe UI,Arial,sans-serif" font-size="19" font-weight="700">SHOWCASE</text><text x="72" y="585" fill="#b0c6ce" font-family="Segoe UI,Arial,sans-serif" font-size="20">© 2026 Basel Zaid</text></svg>